<?xml version="1.0" standalone="no"?>
<!DOCTYPE svg PUBLIC "-//W3C//DTD SVG 20010904//EN"
 "http://www.w3.org/TR/2001/REC-SVG-20010904/DTD/svg10.dtd">
<svg version="1.0" xmlns="http://www.w3.org/2000/svg"
 width="588.000000pt" height="133.000000pt" viewBox="0 0 588.000000 133.000000"
 preserveAspectRatio="xMidYMid meet">

<g transform="translate(0.000000,133.000000) scale(0.100000,-0.100000)"
fill="#000000" stroke="none">
<path d="M1990 1030 c-14 -4 -89 -8 -166 -9 l-142 -1 -4 -30 c-5 -35 -5 -35
27 -14 13 8 36 14 52 12 l28 -3 3 -103 c3 -104 -6 -142 -33 -142 -8 0 -15 -4
-15 -10 0 -6 30 -10 70 -10 67 0 93 12 50 23 -19 5 -20 14 -20 126 l0 121 29
0 c16 0 36 -7 45 -15 20 -20 23 -19 30 10 8 30 21 32 36 6 17 -32 13 -227 -5
-245 -23 -23 -19 -26 35 -26 49 0 66 12 35 24 -13 5 -15 20 -13 73 l3 68 34 3
c43 4 51 -8 51 -81 0 -42 -4 -59 -15 -63 -27 -11 -5 -24 41 -24 48 0 52 4 29
26 -10 11 -15 36 -15 84 0 62 -3 71 -23 85 -18 11 -31 12 -57 5 -19 -6 -39
-10 -44 -10 -4 0 -6 29 -4 65 4 68 3 69 -42 55z"/>
<path d="M3975 1033 c-45 -10 -47 -12 -31 -29 23 -22 24 -252 1 -260 -31 -12
-13 -24 35 -24 54 0 58 3 35 27 -12 11 -15 32 -13 77 l3 61 40 0 40 0 3 -72
c2 -46 -1 -73 -8 -73 -5 0 -10 -4 -10 -10 0 -12 87 -13 94 -1 3 5 -1 11 -9 15
-11 4 -15 22 -15 74 0 99 -16 115 -104 97 l-39 -8 7 67 c4 36 4 65 -1 65 -4
-1 -17 -3 -28 -6z"/>
<path d="M220 1012 c0 -4 9 -13 20 -20 18 -11 20 -23 20 -122 0 -99 -2 -111
-20 -122 -33 -21 -23 -28 40 -28 57 0 78 11 44 24 -11 4 -14 18 -12 58 l3 53
65 0 65 0 3 -53 c2 -40 -1 -54 -12 -58 -9 -3 -16 -10 -16 -15 0 -12 107 -11
115 1 3 6 0 10 -8 10 -22 0 -27 23 -27 130 0 107 5 130 26 130 8 0 14 5 14 10
0 6 -27 10 -60 10 -57 0 -78 -11 -45 -24 11 -4 15 -21 15 -61 l0 -55 -70 0
-70 0 0 55 c0 40 4 57 15 61 33 13 12 24 -45 24 -33 0 -60 -3 -60 -8z"/>
<path d="M3179 997 c-42 -28 -69 -79 -69 -133 0 -107 127 -179 218 -124 39 24
44 44 6 30 -71 -27 -149 7 -172 74 -34 105 41 174 143 132 36 -15 45 -12 45
15 0 22 -20 29 -84 29 -38 0 -62 -6 -87 -23z"/>
<path d="M4240 1011 c0 -3 9 -12 20 -19 18 -11 20 -23 20 -122 0 -99 -2 -111
-20 -122 -11 -7 -20 -15 -20 -18 0 -3 44 -5 98 -4 86 0 103 3 131 23 42 30 65
76 64 133 -1 96 -65 139 -208 137 -47 0 -85 -4 -85 -8z m176 -27 c45 -21 68
-66 68 -131 0 -41 -5 -57 -23 -76 -27 -29 -71 -40 -106 -27 -25 9 -25 11 -25
124 0 115 2 123 38 125 8 1 29 -6 48 -15z"/>
<path d="M3617 932 c-36 -24 -37 -26 -18 -34 19 -7 21 -15 21 -87 0 -89 9 -99
73 -86 51 11 55 20 12 25 l-40 5 0 65 0 65 34 5 c49 7 51 28 4 32 -30 2 -37 7
-35 21 4 23 -6 21 -51 -11z"/>
<path d="M4793 932 c-31 -26 -31 -28 -13 -40 16 -9 20 -26 22 -89 3 -75 4 -78
29 -81 14 -2 38 3 55 9 l29 12 -35 6 -35 6 0 65 0 65 33 3 c46 5 43 32 -3 32
-28 0 -35 4 -35 20 0 26 -8 25 -47 -8z"/>
<path d="M5527 932 c-36 -24 -37 -26 -18 -34 19 -7 21 -15 21 -81 0 -89 10
-102 70 -92 51 9 62 25 16 25 -41 0 -49 17 -44 91 3 42 5 44 37 49 49 7 51 28
4 32 -30 2 -37 7 -35 21 4 23 -6 21 -51 -11z"/>
<path d="M583 916 c-36 -10 -42 -20 -18 -30 11 -4 15 -22 15 -74 0 -39 5 -73
12 -80 15 -15 60 -15 92 -1 17 8 29 9 38 2 15 -12 168 -16 168 -5 0 4 -5 13
-11 19 -5 5 -9 38 -7 74 l3 64 35 0 35 0 3 -64 c2 -36 -2 -69 -7 -74 -20 -20
-11 -27 34 -27 41 0 61 13 34 22 -14 5 -24 88 -15 122 5 20 13 26 34 26 15 0
33 -5 40 -12 14 -14 16 -124 2 -133 -23 -14 -7 -25 35 -25 49 0 53 4 30 26
-10 11 -15 36 -15 83 0 49 -4 72 -15 81 -19 16 -66 16 -95 0 -16 -8 -25 -8
-41 4 -16 11 -29 12 -57 4 -25 -7 -37 -7 -40 0 -2 7 -14 7 -34 1 -41 -11 -43
-15 -24 -34 16 -17 21 -79 10 -122 -6 -23 -47 -33 -58 -15 -3 5 -6 45 -7 90
-3 75 -4 82 -23 82 -34 0 -53 -17 -38 -32 7 -7 12 -37 12 -69 0 -60 -7 -69
-56 -69 -28 0 -33 15 -36 110 l-3 66 -32 -10z"/>
<path d="M1233 918 c-56 -12 -55 -28 1 -28 37 0 46 -4 51 -21 9 -26 1 -33 -50
-49 -52 -16 -65 -27 -65 -54 0 -42 46 -60 91 -35 13 6 25 7 32 1 13 -10 177
-16 177 -6 0 3 -7 12 -15 21 -12 11 -15 32 -13 77 l3 61 40 0 40 0 3 -64 c2
-36 -2 -69 -7 -74 -20 -20 -11 -27 34 -27 41 0 61 13 33 22 -7 3 -13 31 -15
69 -2 35 -6 74 -8 85 -6 27 -37 36 -76 22 -19 -7 -34 -7 -42 0 -8 6 -24 5 -46
-2 -29 -10 -31 -13 -17 -25 12 -10 16 -31 16 -77 0 -68 -8 -79 -46 -70 -23 6
-24 10 -24 80 0 94 -17 110 -97 94z m57 -119 c0 -24 -22 -49 -44 -49 -33 0
-40 26 -13 45 25 17 57 20 57 4z"/>
<path d="M2310 913 c-17 -12 -24 -13 -30 -3 -5 9 -19 10 -46 5 -34 -6 -37 -8
-21 -20 23 -17 25 -143 2 -151 -33 -13 -12 -24 45 -24 63 0 75 8 38 25 -25 11
-35 64 -23 113 5 21 11 24 40 20 32 -4 45 5 45 32 0 16 -28 18 -50 3z"/>
<path d="M2440 916 c-50 -16 -77 -73 -61 -127 15 -48 44 -69 97 -69 48 0 89
33 99 80 6 29 -14 92 -34 105 -28 17 -69 22 -101 11z m69 -42 c37 -47 21 -134
-24 -134 -7 0 -23 8 -35 18 -27 22 -40 103 -20 127 19 23 56 18 79 -11z"/>
<path d="M3457 920 c-64 -12 -69 -30 -8 -30 51 0 52 -1 49 -26 -2 -21 -13 -30
-52 -45 -62 -23 -70 -31 -62 -63 8 -32 45 -43 88 -25 24 10 33 10 36 1 4 -14
58 -16 66 -3 3 5 -1 11 -9 15 -11 4 -15 21 -15 65 0 103 -17 124 -93 111z m43
-129 c0 -40 -61 -56 -68 -18 -2 10 5 21 20 26 36 15 48 13 48 -8z"/>
<path d="M3855 924 c-6 -1 -23 -5 -38 -8 -31 -7 -67 -58 -67 -94 0 -77 83
-125 150 -87 25 14 25 14 -13 15 -73 0 -119 90 -71 140 12 12 19 12 50 1 30
-11 38 -11 45 0 4 7 6 16 3 20 -4 8 -45 17 -59 13z"/>
<path d="M4623 918 c-57 -12 -54 -26 5 -30 42 -3 47 -5 47 -27 0 -20 -8 -27
-45 -40 -61 -22 -70 -28 -70 -55 0 -42 45 -60 90 -36 14 7 25 7 38 -1 11 -7
31 -9 47 -5 28 7 28 7 6 22 -18 13 -21 25 -21 82 0 37 -4 72 -8 78 -11 18 -44
22 -89 12z m57 -126 c0 -25 -19 -42 -47 -42 -31 0 -31 37 0 50 34 14 47 12 47
-8z"/>
<path d="M4993 918 c-57 -12 -54 -26 5 -30 42 -3 47 -5 47 -27 0 -20 -8 -27
-45 -40 -61 -22 -70 -28 -70 -55 0 -42 45 -60 90 -36 14 7 25 7 38 -1 11 -7
31 -9 47 -5 28 7 28 7 6 22 -18 13 -21 25 -21 82 0 37 -4 72 -8 78 -11 18 -44
22 -89 12z m57 -126 c0 -25 -19 -42 -47 -42 -31 0 -31 37 0 50 34 14 47 12 47
-8z"/>
<path d="M5192 923 c-29 -6 -56 -46 -47 -73 4 -11 29 -32 56 -45 49 -25 63
-50 33 -62 -9 -3 -31 2 -50 11 -32 15 -35 15 -41 0 -8 -22 14 -34 65 -34 41 0
82 25 82 51 0 24 -23 50 -63 70 -44 23 -59 38 -51 51 7 11 52 10 59 -2 11 -18
35 -11 35 10 0 11 -6 20 -14 20 -8 0 -20 2 -28 4 -7 2 -23 1 -36 -1z"/>
<path d="M5375 919 c-43 -12 -65 -46 -65 -101 0 -40 4 -50 31 -72 34 -29 80
-33 119 -11 25 14 24 14 -18 15 -32 0 -49 6 -67 25 -14 13 -25 28 -25 33 0 13
36 22 88 22 40 0 42 2 42 29 0 28 -22 61 -40 61 -5 0 -14 2 -22 4 -7 2 -26 0
-43 -5z m59 -41 c13 -22 10 -24 -41 -33 -38 -6 -43 -5 -43 12 0 42 61 58 84
21z"/>
<path d="M2590 911 c0 -5 7 -14 15 -21 8 -6 29 -47 47 -91 17 -43 37 -79 44
-79 6 0 22 27 34 61 13 33 26 57 31 52 4 -4 16 -30 27 -58 11 -27 25 -50 32
-50 7 0 28 36 47 80 19 44 40 85 48 91 24 18 18 24 -25 24 -37 0 -39 -2 -28
-19 9 -15 8 -28 -6 -65 -10 -25 -21 -44 -26 -41 -13 8 -40 95 -33 110 4 12 -4
15 -36 15 -45 0 -49 -4 -27 -26 13 -12 12 -21 -6 -65 l-22 -51 -18 48 c-11 27
-18 59 -15 71 4 21 1 23 -39 23 -24 0 -44 -4 -44 -9z"/>
<path d="M3008 847 c-40 -6 -58 -14 -58 -24 0 -11 8 -13 28 -9 15 3 44 8 65
12 34 6 48 18 30 27 -5 2 -34 -1 -65 -6z"/>
<path d="M220 320 l0 -70 2715 0 2715 0 0 70 0 70 -2715 0 -2715 0 0 -70z"/>
</g>
</svg>
